<svg xmlns="http://www.w3.org/2000/svg" viewBox="0 0 626 146" preserveAspectRatio="xMidYMid meet">
  <rect x="0" y="0" width="626" height="146" fill="#fff"/>
  <rect x="24.00" y="0" width="2.00" height="110" fill="#000" />
  <rect x="31.00" y="0" width="2.00" height="110" fill="#000" />
  <rect x="35.00" y="0" width="5.00" height="110" fill="#000" />
  <rect x="42.00" y="0" width="5.00" height="110" fill="#000" />
  <rect x="49.00" y="0" width="2.00" height="110" fill="#000" />
  <rect x="53.00" y="0" width="5.00" height="110" fill="#000" />
  <rect x="60.00" y="0" width="2.00" height="110" fill="#000" />
  <rect x="64.00" y="0" width="2.00" height="110" fill="#000" />
  <rect x="71.00" y="0" width="2.00" height="110" fill="#000" />
  <rect x="75.00" y="0" width="5.00" height="110" fill="#000" />
  <rect x="82.00" y="0" width="2.00" height="110" fill="#000" />
  <rect x="86.00" y="0" width="5.00" height="110" fill="#000" />
  <rect x="93.00" y="0" width="2.00" height="110" fill="#000" />
  <rect x="100.00" y="0" width="2.00" height="110" fill="#000" />
  <rect x="104.00" y="0" width="5.00" height="110" fill="#000" />
  <rect x="111.00" y="0" width="5.00" height="110" fill="#000" />
  <rect x="118.00" y="0" width="5.00" height="110" fill="#000" />
  <rect x="125.00" y="0" width="2.00" height="110" fill="#000" />
  <rect x="132.00" y="0" width="2.00" height="110" fill="#000" />
  <rect x="136.00" y="0" width="2.00" height="110" fill="#000" />
  <rect x="140.00" y="0" width="2.00" height="110" fill="#000" />
  <rect x="144.00" y="0" width="2.00" height="110" fill="#000" />
  <rect x="148.00" y="0" width="5.00" height="110" fill="#000" />
  <rect x="158.00" y="0" width="2.00" height="110" fill="#000" />
  <rect x="162.00" y="0" width="5.00" height="110" fill="#000" />
  <rect x="169.00" y="0" width="5.00" height="110" fill="#000" />
  <rect x="176.00" y="0" width="2.00" height="110" fill="#000" />
  <rect x="180.00" y="0" width="5.00" height="110" fill="#000" />
  <rect x="190.00" y="0" width="2.00" height="110" fill="#000" />
  <rect x="194.00" y="0" width="2.00" height="110" fill="#000" />
  <rect x="198.00" y="0" width="2.00" height="110" fill="#000" />
  <rect x="202.00" y="0" width="5.00" height="110" fill="#000" />
  <rect x="209.00" y="0" width="5.00" height="110" fill="#000" />
  <rect x="219.00" y="0" width="2.00" height="110" fill="#000" />
  <rect x="223.00" y="0" width="2.00" height="110" fill="#000" />
  <rect x="227.00" y="0" width="2.00" height="110" fill="#000" />
  <rect x="231.00" y="0" width="2.00" height="110" fill="#000" />
  <rect x="235.00" y="0" width="2.00" height="110" fill="#000" />
  <rect x="242.00" y="0" width="5.00" height="110" fill="#000" />
  <rect x="249.00" y="0" width="5.00" height="110" fill="#000" />
  <rect x="256.00" y="0" width="5.00" height="110" fill="#000" />
  <rect x="263.00" y="0" width="2.00" height="110" fill="#000" />
  <rect x="267.00" y="0" width="2.00" height="110" fill="#000" />
  <rect x="274.00" y="0" width="5.00" height="110" fill="#000" />
  <rect x="281.00" y="0" width="2.00" height="110" fill="#000" />
  <rect x="285.00" y="0" width="5.00" height="110" fill="#000" />
  <rect x="292.00" y="0" width="2.00" height="110" fill="#000" />
  <rect x="299.00" y="0" width="2.00" height="110" fill="#000" />
  <rect x="303.00" y="0" width="2.00" height="110" fill="#000" />
  <rect x="307.00" y="0" width="5.00" height="110" fill="#000" />
  <rect x="314.00" y="0" width="2.00" height="110" fill="#000" />
  <rect x="318.00" y="0" width="2.00" height="110" fill="#000" />
  <rect x="325.00" y="0" width="5.00" height="110" fill="#000" />
  <rect x="332.00" y="0" width="2.00" height="110" fill="#000" />
  <rect x="336.00" y="0" width="5.00" height="110" fill="#000" />
  <rect x="343.00" y="0" width="2.00" height="110" fill="#000" />
  <rect x="347.00" y="0" width="5.00" height="110" fill="#000" />
  <rect x="354.00" y="0" width="5.00" height="110" fill="#000" />
  <rect x="361.00" y="0" width="2.00" height="110" fill="#000" />
  <rect x="368.00" y="0" width="2.00" height="110" fill="#000" />
  <rect x="372.00" y="0" width="5.00" height="110" fill="#000" />
  <rect x="379.00" y="0" width="5.00" height="110" fill="#000" />
  <rect x="386.00" y="0" width="2.00" height="110" fill="#000" />
  <rect x="393.00" y="0" width="2.00" height="110" fill="#000" />
  <rect x="397.00" y="0" width="2.00" height="110" fill="#000" />
  <rect x="401.00" y="0" width="2.00" height="110" fill="#000" />
  <rect x="405.00" y="0" width="2.00" height="110" fill="#000" />
  <rect x="412.00" y="0" width="5.00" height="110" fill="#000" />
  <rect x="419.00" y="0" width="5.00" height="110" fill="#000" />
  <rect x="426.00" y="0" width="2.00" height="110" fill="#000" />
  <rect x="430.00" y="0" width="5.00" height="110" fill="#000" />
  <rect x="437.00" y="0" width="5.00" height="110" fill="#000" />
  <rect x="444.00" y="0" width="2.00" height="110" fill="#000" />
  <rect x="448.00" y="0" width="2.00" height="110" fill="#000" />
  <rect x="455.00" y="0" width="2.00" height="110" fill="#000" />
  <rect x="459.00" y="0" width="2.00" height="110" fill="#000" />
  <rect x="463.00" y="0" width="5.00" height="110" fill="#000" />
  <rect x="470.00" y="0" width="2.00" height="110" fill="#000" />
  <rect x="477.00" y="0" width="5.00" height="110" fill="#000" />
  <rect x="484.00" y="0" width="2.00" height="110" fill="#000" />
  <rect x="488.00" y="0" width="5.00" height="110" fill="#000" />
  <rect x="495.00" y="0" width="2.00" height="110" fill="#000" />
  <rect x="499.00" y="0" width="2.00" height="110" fill="#000" />
  <rect x="506.00" y="0" width="2.00" height="110" fill="#000" />
  <rect x="510.00" y="0" width="5.00" height="110" fill="#000" />
  <rect x="517.00" y="0" width="2.00" height="110" fill="#000" />
  <rect x="521.00" y="0" width="5.00" height="110" fill="#000" />
  <rect x="528.00" y="0" width="5.00" height="110" fill="#000" />
  <rect x="538.00" y="0" width="2.00" height="110" fill="#000" />
  <rect x="542.00" y="0" width="2.00" height="110" fill="#000" />
  <rect x="546.00" y="0" width="2.00" height="110" fill="#000" />
  <rect x="550.00" y="0" width="2.00" height="110" fill="#000" />
  <rect x="557.00" y="0" width="5.00" height="110" fill="#000" />
  <rect x="564.00" y="0" width="5.00" height="110" fill="#000" />
  <rect x="571.00" y="0" width="2.00" height="110" fill="#000" />
  <rect x="575.00" y="0" width="2.00" height="110" fill="#000" />
  <rect x="582.00" y="0" width="2.00" height="110" fill="#000" />
  <rect x="586.00" y="0" width="5.00" height="110" fill="#000" />
  <rect x="593.00" y="0" width="5.00" height="110" fill="#000" />
  <rect x="600.00" y="0" width="2.00" height="110" fill="#000" />
  <text x="313" y="136" text-anchor="middle"
        font-family="ui-monospace, Menlo, Consolas, monospace" font-size="22"
        letter-spacing="2" fill="#000">ABCDEFGH14PC0MIAF0</text>
</svg>